<!-- Generator: Adobe Illustrator 18.1.1, SVG Export Plug-In  -->
<svg version="1.1"
	 xmlns="http://www.w3.org/2000/svg" xmlns:xlink="http://www.w3.org/1999/xlink" xmlns:a="http://ns.adobe.com/AdobeSVGViewerExtensions/3.0/"
	 x="0px" y="0px" viewBox="0 0 20 20" enable-background="new 0 0 20 20" xml:space="preserve">
<defs>
</defs>
<path d="M6.3,6.6L1.7,2c0.6-0.6,1.2-1.2,1.8-1.8c0.3-0.3,0.7-0.3,1,0L8,3.8c0.3,0.3,0.3,0.7,0,1L7.3,5.6L6.5,6.3
	C6.4,6.4,6.3,6.5,6.3,6.6z M10.1,14.1c-0.8-0.7-1.5-1.3-2.2-2c-0.7-0.7-1.4-1.4-2-2.2C5.3,9.3,5.2,8.4,5.5,7.7L0.7,2.9
	C-0.4,4-0.2,6.9,1,9.3c0.5,1.1,1.2,2,1.9,3c0.7,0.9,1.5,1.8,2.3,2.6c0.8,0.8,1.7,1.6,2.6,2.3c0.9,0.7,1.9,1.4,2.9,1.9
	c2.5,1.2,5.3,1.3,6.4,0.2l-4.7-4.7C11.6,14.8,10.7,14.7,10.1,14.1z M19.8,15.5l-3.6-3.6c-0.3-0.3-0.7-0.3-1,0h0l-0.8,0.8l-0.7,0.7
	c-0.1,0.1-0.2,0.2-0.3,0.2l4.6,4.6c0.6-0.6,1.2-1.2,1.8-1.8C20.1,16.3,20.1,15.8,19.8,15.5z"/>
</svg>
