<!-- Generator: Adobe Illustrator 18.1.1, SVG Export Plug-In  -->
<svg version="1.1"
	 xmlns="http://www.w3.org/2000/svg" xmlns:xlink="http://www.w3.org/1999/xlink" xmlns:a="http://ns.adobe.com/AdobeSVGViewerExtensions/3.0/"
	 x="0px" y="0px" viewBox="0 0 18 18" enable-background="new 0 0 18 18" xml:space="preserve">
<defs>
</defs>
<g>
	<path d="M17.3,5.5c-0.9-2.2-2.6-3.8-4.8-4.8C11.4,0.2,10.2,0,9,0C7.8,0,6.6,0.2,5.5,0.7C3.3,1.7,1.7,3.3,0.7,5.5
		C0.2,6.6,0,7.8,0,9c0,1.2,0.2,2.4,0.7,3.5c1,2.2,2.6,3.8,4.8,4.8C6.6,17.7,7.8,18,9,18c1.2,0,2.4-0.2,3.5-0.7
		c2.2-1,3.8-2.6,4.8-4.8C17.8,11.4,18,10.2,18,9C18,7.8,17.8,6.6,17.3,5.5z M6,1.7c-0.8,1-1.3,2.2-1.7,3.7H1.9
		C2.8,3.7,4.3,2.4,6,1.7z M1.1,9c0-0.9,0.1-1.7,0.4-2.5h2.6C3.9,7.3,3.9,8.2,3.9,9c0,0.8,0.1,1.6,0.2,2.5H1.5
		C1.2,10.6,1.1,9.8,1.1,9z M1.9,12.5h2.4c0.4,1.5,0.9,2.8,1.7,3.8C4.2,15.6,2.8,14.2,1.9,12.5z M8.4,16.8c-0.6-0.2-1.2-0.7-1.8-1.4
		c-0.5-0.8-1-1.7-1.2-2.9h3V16.8z M8.4,11.4H5.2C5,10.6,5,9.8,5,9C5,8.2,5,7.3,5.2,6.5h3.2L8.4,11.4L8.4,11.4z M8.4,5.4h-3
		c0.3-1.1,0.7-2.1,1.3-2.8c0.5-0.8,1.1-1.2,1.8-1.4L8.4,5.4L8.4,5.4z M16.1,5.4h-2.4c-0.4-1.5-0.9-2.8-1.7-3.7
		C13.7,2.4,15.2,3.7,16.1,5.4z M9.6,1.2c0.6,0.2,1.2,0.7,1.8,1.4c0.5,0.8,1,1.7,1.3,2.8h-3V1.2z M9.6,6.5h3.2C13,7.3,13,8.2,13,9
		c0,0.8-0.1,1.6-0.2,2.5H9.6V6.5z M9.6,16.8v-4.3h3c-0.3,1.1-0.7,2.1-1.2,2.9C10.8,16.2,10.2,16.6,9.6,16.8z M12,16.3
		c0.8-1,1.3-2.2,1.7-3.8h2.4C15.2,14.2,13.8,15.6,12,16.3z M16.5,11.4h-2.6c0.1-0.8,0.2-1.7,0.2-2.5c0-0.8-0.1-1.6-0.2-2.5h2.6
		c0.3,0.8,0.4,1.6,0.4,2.5C16.9,9.8,16.8,10.6,16.5,11.4z"/>
</g>
</svg>
