<!-- Generator: Adobe Illustrator 18.1.1, SVG Export Plug-In  -->
<svg version="1.1"
	 xmlns="http://www.w3.org/2000/svg" xmlns:xlink="http://www.w3.org/1999/xlink" xmlns:a="http://ns.adobe.com/AdobeSVGViewerExtensions/3.0/"
	 x="0px" y="0px" viewBox="0 0 220.3 165.8" enable-background="new 0 0 220.3 165.8"
	 xml:space="preserve">
<defs>
</defs>
<g>
	<g>
		<g>
			<path d="M220.3,99.6c0-18.1-11-34.9-28.7-43.7c-7.1-3.5-14.9-5.5-22.9-6c-1.5-1.2-3.1-2.4-4.8-3.5
				c-15.2-9.3-34.7-7.9-48.7,2.7V35.6h-0.1c0-0.2,0.2-0.4,0.2-0.6c0,0,0,0,0,0l8.1,4l-11.4-15.7V23h0.2l17.6,10.2l-4.4-7.3l0,0
				c4.8,0,8.7-4.6,8.7-4.6s-3.9-4.6-8.7-4.6l0,0l4.4-7.3l-17.6,10.1h-0.2v-0.1l11.4-15.7l-8.1,4c0,0,0,0,0,0c0-4.3-5.1-7.7-5.1-7.7
				S105,3.5,105,7.7c0,0,0,0,0,0l-8.2-4l11.4,15.7v0.1h-0.2L90.5,9.5l4.5,7.3c0,0,0,0,0,0c-4.8,0-8.7,4.6-8.7,4.6s3.9,4.6,8.7,4.6
				c0,0,0,0,0,0l-4.5,7.3L108.1,23h0.2v0.1L96.9,38.9l8.2-4c0,0,0,0,0,0c0,0.2,0.1,0.4,0.2,0.6h-0.1v13.6c-14-10.5-33.5-12-48.7-2.6
				c-1.6,1-3.1,2.1-4.6,3.3C43.3,49.9,34.8,52,27.2,56C10.4,64.8,0,81.5,0,99.6c0,5.2,0.9,10.4,2.5,14.9c2.2,9.2,8.5,18.8,16.7,28.2
				H6.2v7H15v9.2H6.2v6.9h207.9v-6.9h-8.8v-9.2h8.8v-7h-13.8c8.5-9.2,15-18.7,17.2-27.7C219.4,110,220.3,104.8,220.3,99.6z
				 M114.4,63.5c10.6-14.4,29.3-18.4,43.7-9.6c11.6,7.2,18.8,21,18.8,36c0,4.4-0.6,8.7-1.9,13.2c-2.5,12.7-13.1,26.9-25.2,39.6
				h-37.5c1.7-3.1,3.9-7.2,3.9-9.4c0-0.5-0.2-1-0.3-1.5c1.1,0.7,2.3,1.3,3.7,1.6c7.1,1.5,10.9-7.6,8.8-9.6c-3.3-2.9-5.6,4.1-7.8,4.7
				c-2.1,0.6-4,0.3-5.6-0.4v-20.2h22.6c0.7,1.4,1.1,3.1,0.4,5c-0.7,2-8.5,4-5.3,6.9c2.3,1.9,12.4-1.5,10.8-7.9
				c-0.3-1.2-1-2.3-1.8-3.3c0.5,0.2,1,0.3,1.6,0.3c4.1,0,14.6-5.4,14.6-5.4s-10.5-5.4-14.6-5.4c-0.6,0-1.1,0.1-1.6,0.3
				c0.8-1,1.5-2.1,1.8-3.3c1.7-6.4-8.5-9.8-10.8-7.9c-3.2,2.9,4.7,5,5.3,6.9c0.6,1.9,0.3,3.6-0.4,5H115V79.2c1.6-0.7,3.5-1,5.6-0.4
				c2.2,0.6,4.5,7.6,7.8,4.8c2.1-2-1.7-11.1-8.8-9.6c-1.4,0.3-2.6,0.9-3.7,1.6c0.2-0.5,0.3-0.9,0.3-1.4c0-2-1.8-5.6-3.4-8.5
				L114.4,63.5z M62.2,53.9c5.1-3.2,10.9-4.8,16.7-4.8c10.4,0,20.2,5.3,27.1,14.4l1.6,2.1c-1.6,3-3.4,6.6-3.4,8.6
				c0,0.5,0.1,1,0.3,1.4c-1.1-0.7-2.3-1.3-3.7-1.6c-7.1-1.5-10.9,7.6-8.8,9.6c3.3,2.9,5.6-4.1,7.8-4.8c2.1-0.6,4-0.3,5.6,0.4v20.2
				H82.7c-0.7-1.4-1.1-3.1-0.4-5c0.7-2,8.5-4,5.3-6.9c-2.3-1.9-12.4,1.5-10.8,7.9c0.3,1.2,1,2.3,1.8,3.3c-0.5-0.2-1-0.3-1.6-0.3
				c-4.1,0-14.6,5.4-14.6,5.4s10.5,5.4,14.6,5.4c0.6,0,1.1-0.1,1.6-0.3c-0.8,1-1.5,2.1-1.8,3.3c-1.7,6.4,8.5,9.8,10.8,7.9
				c3.2-2.9-4.7-5-5.3-6.9c-0.6-1.9-0.3-3.6,0.4-5h22.6v20.2c-1.6,0.7-3.5,1-5.6,0.4c-2.2-0.6-4.5-7.6-7.8-4.8
				c-2.1,2,1.7,11.1,8.8,9.6c1.4-0.3,2.6-0.9,3.7-1.6c-0.2,0.5-0.3,0.9-0.3,1.5c0,2.2,2.2,6.4,3.9,9.4H70.6
				c-12.2-12.8-22.9-27.1-25.4-39.9c-1.2-4.2-1.9-8.5-1.9-12.9C43.4,74.9,50.6,61.1,62.2,53.9z M12.3,112.3
				c-1.4-4.1-2.2-8.4-2.2-12.7c0-14.9,8.6-28.7,22.3-35.9c3.2-1.7,6.6-2.9,10.1-3.8c-5.8,8.5-9.2,19-9.2,29.9
				c0,5.1,0.7,10.2,2.1,14.8c2.5,12.5,11.4,25.8,22.2,38H32.3C22.4,132.6,14.6,122.1,12.3,112.3z M207.8,112.7
				c-2.4,9.6-10.6,20-20.9,30.1h-24c10.7-12.1,19.6-25.3,22-37.6c1.4-4.9,2.2-10,2.2-15.2c0-10.7-3.2-20.9-8.8-29.3
				c2.9,0.8,5.7,1.8,8.4,3.2c14.5,7.2,23.5,20.9,23.5,35.8C210.2,103.9,209.4,108.1,207.8,112.7z"/>
		</g>
	</g>
</g>
</svg>
