<!-- Generator: Adobe Illustrator 18.1.1, SVG Export Plug-In  -->
<svg version="1.1"
	 xmlns="http://www.w3.org/2000/svg" xmlns:xlink="http://www.w3.org/1999/xlink" xmlns:a="http://ns.adobe.com/AdobeSVGViewerExtensions/3.0/"
	 x="0px" y="0px" viewBox="0 0 120.1 26.3" enable-background="new 0 0 120.1 26.3"
	 xml:space="preserve">
<defs>
</defs>
<g>
	<g>
		<g>
			<path fill="#FFFFFF" d="M35,15.8c0-2.9-1.7-5.5-4.6-6.9c-1.1-0.6-2.4-0.9-3.6-1c-0.2-0.2-0.5-0.4-0.8-0.5
				c-2.4-1.5-5.5-1.2-7.7,0.4V5.6h0c0,0,0-0.1,0-0.1c0,0,0,0,0,0l1.3,0.6l-1.8-2.5v0h0l2.8,1.6l-0.7-1.2l0,0c0.8,0,1.4-0.7,1.4-0.7
				s-0.6-0.7-1.4-0.7l0,0l0.7-1.2l-2.8,1.6h0v0l1.8-2.5l-1.3,0.6c0,0,0,0,0,0c0-0.7-0.8-1.2-0.8-1.2s-0.8,0.5-0.8,1.2c0,0,0,0,0,0
				l-1.3-0.6l1.8,2.5v0h0l-2.8-1.6l0.7,1.2c0,0,0,0,0,0c-0.8,0-1.4,0.7-1.4,0.7s0.6,0.7,1.4,0.7c0,0,0,0,0,0l-0.7,1.2l2.8-1.6h0v0
				l-1.8,2.5l1.3-0.6c0,0,0,0,0,0c0,0,0,0.1,0,0.1h0v2.2C14.5,6.1,11.4,5.9,9,7.4C8.7,7.5,8.5,7.7,8.2,7.9c-1.4,0-2.7,0.4-3.9,1
				C1.7,10.3,0,13,0,15.8c0,0.8,0.1,1.6,0.4,2.4c0.3,1.5,1.3,3,2.6,4.5H1v1.1h1.4v1.5H1v1.1h33v-1.1h-1.4v-1.5H34v-1.1h-2.2
				c1.4-1.5,2.4-3,2.7-4.4C34.8,17.5,35,16.7,35,15.8z M18.2,10.1c1.7-2.3,4.7-2.9,6.9-1.5c1.8,1.1,3,3.3,3,5.7
				c0,0.7-0.1,1.4-0.3,2.1c-0.4,2-2.1,4.3-4,6.3h-6c0.3-0.5,0.6-1.1,0.6-1.5c0-0.1,0-0.2-0.1-0.2c0.2,0.1,0.4,0.2,0.6,0.3
				c1.1,0.2,1.7-1.2,1.4-1.5c-0.5-0.5-0.9,0.7-1.2,0.8c-0.3,0.1-0.6,0-0.9-0.1v-3.2h3.6c0.1,0.2,0.2,0.5,0.1,0.8
				c-0.1,0.3-1.4,0.6-0.8,1.1c0.4,0.3,2-0.2,1.7-1.3c-0.1-0.2-0.2-0.4-0.3-0.5c0.1,0,0.2,0,0.3,0c0.7,0,2.3-0.9,2.3-0.9
				s-1.7-0.9-2.3-0.9c-0.1,0-0.2,0-0.3,0c0.1-0.2,0.2-0.3,0.3-0.5c0.3-1-1.3-1.5-1.7-1.3c-0.5,0.5,0.7,0.8,0.8,1.1
				c0.1,0.3,0,0.6-0.1,0.8h-3.6v-3.2c0.3-0.1,0.6-0.2,0.9-0.1c0.4,0.1,0.7,1.2,1.2,0.8c0.3-0.3-0.3-1.8-1.4-1.5
				c-0.2,0.1-0.4,0.1-0.6,0.3c0-0.1,0.1-0.1,0.1-0.2c0-0.3-0.3-0.9-0.5-1.4L18.2,10.1z M9.9,8.6c0.8-0.5,1.7-0.8,2.7-0.8
				c1.6,0,3.2,0.8,4.3,2.3l0.2,0.3c-0.3,0.5-0.5,1-0.5,1.4c0,0.1,0,0.2,0.1,0.2c-0.2-0.1-0.4-0.2-0.6-0.3c-1.1-0.2-1.7,1.2-1.4,1.5
				c0.5,0.5,0.9-0.7,1.2-0.8c0.3-0.1,0.6,0,0.9,0.1v3.2h-3.6C13,15.6,13,15.3,13.1,15c0.1-0.3,1.4-0.6,0.8-1.1
				c-0.4-0.3-2,0.2-1.7,1.3c0.1,0.2,0.2,0.4,0.3,0.5c-0.1,0-0.2,0-0.3,0c-0.7,0-2.3,0.9-2.3,0.9s1.7,0.9,2.3,0.9c0.1,0,0.2,0,0.3,0
				c-0.1,0.2-0.2,0.3-0.3,0.5c-0.3,1,1.3,1.6,1.7,1.3c0.5-0.5-0.7-0.8-0.8-1.1c-0.1-0.3,0-0.6,0.1-0.8h3.6v3.2
				c-0.3,0.1-0.6,0.2-0.9,0.1c-0.4-0.1-0.7-1.2-1.2-0.8c-0.3,0.3,0.3,1.8,1.4,1.5c0.2,0,0.4-0.1,0.6-0.3c0,0.1-0.1,0.1-0.1,0.2
				c0,0.3,0.3,1,0.6,1.5h-5.9c-1.9-2-3.6-4.3-4-6.3c-0.2-0.7-0.3-1.4-0.3-2C6.9,11.9,8,9.7,9.9,8.6z M2,17.8c-0.2-0.7-0.3-1.3-0.3-2
				c0-2.4,1.4-4.6,3.5-5.7c0.5-0.3,1-0.5,1.6-0.6c-0.9,1.4-1.5,3-1.5,4.8c0,0.8,0.1,1.6,0.3,2.4c0.4,2,1.8,4.1,3.5,6h-4
				C3.6,21.1,2.3,19.4,2,17.8z M33,17.9c-0.4,1.5-1.7,3.2-3.3,4.8h-3.8c1.7-1.9,3.1-4,3.5-6c0.2-0.8,0.3-1.6,0.3-2.4
				c0-1.7-0.5-3.3-1.4-4.7c0.5,0.1,0.9,0.3,1.3,0.5c2.3,1.1,3.7,3.3,3.7,5.7C33.4,16.5,33.3,17.2,33,17.9z"/>
		</g>
	</g>
	<g>
		<path fill="#FFFFFF" d="M44.2,8.8c2.1-1.6,4.7-2.4,7.7-2.4c1.5,0,3.7,0.3,5.1,0.7c0.3,0.1,0.5,0.1,0.8,0.1c0,0.7,0.2,2.5,0.4,4.2
			c-0.1,0.2-0.6,0.2-0.8,0.1c-0.4-1.9-1.7-4.2-5.9-4.2c-4.4,0-8.1,2.8-8.1,8.7c0,6,3.8,9.3,8.5,9.3c3.7,0,5.3-2.4,6-4.1
			c0.2-0.1,0.6-0.1,0.7,0.1c-0.2,1.5-0.9,3.4-1.4,3.9c-0.3,0.1-0.7,0.2-1,0.3c-0.6,0.2-2.7,0.7-4.5,0.7c-2.6,0-5-0.5-7.1-1.9
			c-2.3-1.6-4.1-4.2-4.1-7.9C40.6,13.2,42,10.5,44.2,8.8z"/>
		<path fill="#FFFFFF" d="M62.9,11.1c0-3-0.1-3.5-1.7-3.7l-0.7-0.1c-0.2-0.1-0.1-0.6,0.1-0.7c1.4,0.1,2.4,0.1,3.6,0.1
			c1.1,0,2.1,0,3.5-0.1c0.2,0.1,0.2,0.6,0.1,0.7L67,7.5c-1.7,0.1-1.7,0.6-1.7,3.7v10.2c0,3,0.1,3.4,1.7,3.6l0.7,0.1
			c0.2,0.1,0.1,0.6-0.1,0.7c-1.4-0.1-2.4-0.1-3.5-0.1c-1.2,0-2.2,0-3.6,0.1c-0.2-0.1-0.2-0.5-0.1-0.7l0.7-0.1
			c1.7-0.2,1.7-0.6,1.7-3.6V11.1z"/>
		<path fill="#FFFFFF" d="M75.3,26.1c-2.4,0-3.9-0.7-4.5-1.1c-0.3-0.6-0.7-2.7-0.8-4c0.1-0.2,0.6-0.3,0.7-0.1
			c0.4,1.5,1.6,4.3,4.9,4.3c2.4,0,3.6-1.6,3.6-3.3c0-1.3-0.3-2.7-2.3-4l-2.7-1.8c-1.4-0.9-3.1-2.6-3.1-4.9c0-2.7,2.1-4.9,5.8-4.9
			c0.9,0,1.9,0.2,2.7,0.4c0.4,0.1,0.8,0.2,1,0.2c0.3,0.7,0.5,2.3,0.5,3.5c-0.1,0.2-0.6,0.3-0.7,0.1c-0.4-1.4-1.1-3.2-3.9-3.2
			c-2.8,0-3.4,1.9-3.4,3.2c0,1.7,1.4,2.9,2.4,3.5l2.3,1.4c1.8,1.1,3.6,2.8,3.6,5.5C81.4,24,79,26.1,75.3,26.1z"/>
		<path fill="#FFFFFF" d="M94.5,19c-0.2-0.6-0.3-0.7-1.2-0.7H89c-0.7,0-0.9,0.1-1.1,0.7l-1,3c-0.4,1.3-0.6,2.1-0.6,2.4
			c0,0.3,0.1,0.5,0.8,0.6l0.9,0.1c0.2,0.1,0.2,0.6-0.1,0.7c-0.7-0.1-1.6-0.1-3-0.1c-0.9,0-2,0.1-2.7,0.1c-0.2-0.1-0.2-0.6-0.1-0.7
			l0.9-0.1c0.7-0.1,1.3-0.4,1.7-1.4c0.5-1.3,1.3-3.2,2.5-6.4l2.9-7.7c0.4-1,0.6-1.6,0.5-2c0.7-0.2,1.2-0.7,1.5-1.1
			c0.2,0,0.4,0.1,0.4,0.3c0.4,1.3,0.8,2.6,1.3,3.8l3.9,11.5c0.8,2.5,1.2,2.9,2.4,3l0.8,0.1c0.2,0.1,0.1,0.6,0,0.7
			c-1.2-0.1-2.2-0.1-3.5-0.1c-1.4,0-2.5,0.1-3.3,0.1c-0.2-0.1-0.3-0.6-0.1-0.7l0.8-0.1c0.6-0.1,1-0.2,1-0.5c0-0.3-0.1-0.8-0.4-1.5
			L94.5,19z M88.8,16.5c-0.2,0.7-0.2,0.7,0.6,0.7H93c0.8,0,0.9-0.1,0.6-0.9L92,11.6c-0.2-0.7-0.5-1.5-0.7-1.8h-0.1
			c-0.1,0.1-0.4,0.8-0.7,1.7L88.8,16.5z"/>
		<path fill="#FFFFFF" d="M104.3,11.1c0-2.7-0.1-3.2-1.3-3.3l-0.9-0.1c-0.2-0.1-0.2-0.6,0-0.7c1.6-0.1,3.6-0.2,6.4-0.2
			c1.8,0,3.5,0.1,4.8,0.9c1.4,0.7,2.4,2,2.4,4c0,2.7-2.1,4.2-3.6,4.8c-0.1,0.2,0,0.5,0.1,0.7c2.3,3.7,3.8,6,5.7,7.6
			c0.5,0.4,1.2,0.7,2,0.8c0.1,0.1,0.2,0.3,0,0.4c-0.3,0.1-0.7,0.1-1.3,0.1c-2.4,0-3.9-0.7-5.9-3.6c-0.7-1.1-1.9-3-2.8-4.3
			c-0.4-0.6-0.9-0.9-2-0.9c-1.3,0-1.3,0-1.3,0.6v3.6c0,3,0.1,3.3,1.7,3.6L109,25c0.2,0.1,0.1,0.6-0.1,0.7c-1.3-0.1-2.3-0.1-3.4-0.1
			c-1.2,0-2.2,0-3.6,0.1c-0.2-0.1-0.2-0.5-0.1-0.7l0.7-0.1c1.7-0.2,1.7-0.6,1.7-3.6V11.1z M106.7,15.2c0,0.5,0,0.8,0.1,0.9
			c0.1,0.1,0.5,0.1,2,0.1c1,0,2.1-0.1,2.9-0.7c0.8-0.6,1.4-1.6,1.4-3.5c0-2.3-1.4-4.4-4.6-4.4c-1.8,0-1.9,0.1-1.9,0.9V15.2z"/>
	</g>
</g>
</svg>
