<!-- Generator: Adobe Illustrator 18.1.1, SVG Export Plug-In  -->
<svg version="1.1"
	 xmlns="http://www.w3.org/2000/svg" xmlns:xlink="http://www.w3.org/1999/xlink" xmlns:a="http://ns.adobe.com/AdobeSVGViewerExtensions/3.0/"
	 x="0px" y="0px" viewBox="0 0 38 27.5" enable-background="new 0 0 38 27.5" xml:space="preserve">
<defs>
</defs>
<g>
	<g>
		<path stroke-width="2" stroke-miterlimit="10" d="M36.8,8.9c-0.2-0.2-0.4-0.3-0.7-0.3h-3.5
			c-0.9-2.3-2-4.5-3.3-5.4c-4.4-2.9-16.2-2.9-20.6,0C7.4,4,6.3,6.3,5.4,8.5H1.9c-0.3,0-0.5,0.1-0.7,0.3C1,9.1,1,9.4,1,9.7l0.5,2.5
			c0.1,0.4,0.5,0.7,0.9,0.7h1C2.5,14.1,2,15.5,2,17c0,1.8,0.7,3.4,1.9,4.6c0,0,0,0,0,0v3.5c0,0.8,0.6,1.4,1.4,1.4h3.2
			c0.8,0,1.4-0.6,1.4-1.4v-1.4h18.1v1.4c0,0.8,0.6,1.4,1.4,1.4h3.2c0.8,0,1.4-0.6,1.4-1.4v-3.4c1.3-1.2,2-2.9,2-4.6
			c0-1.5-0.5-3-1.6-4.2h1.1c0.4,0,0.8-0.3,0.9-0.7L37,9.7C37,9.4,37,9.1,36.8,8.9z M10.2,5.5c3.5-2.3,14-2.3,17.6,0
			c0.7,0.4,1.6,2.3,2.4,4.5H7.8C8.6,7.8,9.5,5.9,10.2,5.5z M6.1,17.3c0-1.5,1.2-2.7,2.7-2.7c1.5,0,2.7,1.2,2.7,2.7S10.3,20,8.8,20
			C7.3,20,6.1,18.8,6.1,17.3z M29.2,20c-1.5,0-2.7-1.2-2.7-2.7s1.2-2.7,2.7-2.7c1.5,0,2.7,1.2,2.7,2.7S30.7,20,29.2,20z"/>
	</g>
</g>
</svg>
