<!-- Generator: Adobe Illustrator 18.1.1, SVG Export Plug-In  -->
<svg version="1.1"
	 xmlns="http://www.w3.org/2000/svg" xmlns:xlink="http://www.w3.org/1999/xlink" xmlns:a="http://ns.adobe.com/AdobeSVGViewerExtensions/3.0/"
	 x="0px" y="0px" viewBox="0 0 32.4 30.6" enable-background="new 0 0 32.4 30.6"
	 xml:space="preserve">
<defs>
</defs>
<path d="M32.4,24.1v-7c0-0.6-0.5-1.1-1.1-1.1h-1.7V2.8c0-1.5-1.3-2.8-2.8-2.8h-5.4c-1.5,0-2.8,1.2-2.8,2.7v0.8h-2.5
	C15.5,3.6,15,4,15,4.6s0.5,1.1,1.1,1.1h7.1c0.6,0,1.1-0.5,1.1-1.1s-0.5-1.1-1.1-1.1h-2.5V2.7c0-0.3,0.3-0.6,0.6-0.6h5.4
	c0.4,0,0.6,0.3,0.6,0.6V16H1.1C0.5,16,0,16.5,0,17.1v7c0,1.6,0.8,3,2,3.8l-0.9,0.9c-0.4,0.4-0.4,1.1,0,1.5c0.2,0.2,0.5,0.3,0.8,0.3
	s0.6-0.1,0.8-0.3l1.5-1.5c0.2,0,0.4,0,0.6,0h22.9c0.2,0,0.4,0,0.6,0l1.5,1.5c0.2,0.2,0.5,0.3,0.8,0.3c0.3,0,0.6-0.1,0.8-0.3
	c0.4-0.4,0.4-1.1,0-1.5L30.5,28C31.7,27.1,32.4,25.7,32.4,24.1z M4.7,26.7c-1.4,0-2.6-1.2-2.6-2.6v-5.9h28.1v5.9
	c0,1.4-1.2,2.6-2.6,2.6H4.7z"/>
</svg>
