<!-- Generator: Adobe Illustrator 18.1.1, SVG Export Plug-In  -->
<svg version="1.1"
	 xmlns="http://www.w3.org/2000/svg" xmlns:xlink="http://www.w3.org/1999/xlink" xmlns:a="http://ns.adobe.com/AdobeSVGViewerExtensions/3.0/"
	 x="0px" y="0px" viewBox="0 0 27.7 36" enable-background="new 0 0 27.7 36" xml:space="preserve">
<defs>
</defs>
<g>
	<path d="M13.8,1.4c3.1,0,5.7,2.5,5.7,5.7c0,3.1-2.5,5.7-5.7,5.7s-5.7-2.5-5.7-5.7C8.2,4,10.7,1.4,13.8,1.4 M13.8,0
		C9.9,0,6.7,3.2,6.7,7.1c0,3.9,3.2,7.1,7.1,7.1s7.1-3.2,7.1-7.1C20.9,3.2,17.8,0,13.8,0L13.8,0z"/>
	<path d="M7.7,18.5l4,11.1c0.3,0.9,1.1,1.5,2.1,1.5c0.9,0,1.8-0.6,2.1-1.5l4-11.1c0.9,0.1,2.4,0.4,3,0.5
		c2,0.7,3.3,2.5,3.3,4.6v9.8c0,0.7-0.5,1.2-1.2,1.2H2.6c-0.7,0-1.2-0.5-1.2-1.2v-9.7c0-2.2,1.4-4.1,3.2-4.6
		C5.3,18.9,6.8,18.7,7.7,18.5 M8.3,17c-0.1,0-3,0.4-3.9,0.6c-2.6,0.7-4.3,3.3-4.3,6v9.7C0,34.8,1.2,36,2.6,36H25
		c1.5,0,2.6-1.2,2.6-2.6v-9.8c0-2.7-1.7-5.1-4.3-5.9c0,0,0,0,0,0c-0.9-0.2-3.8-0.6-3.8-0.6c-0.1,0-0.1,0-0.2,0
		c-0.3,0-0.5,0.2-0.6,0.4l-4.3,11.7c-0.1,0.3-0.4,0.5-0.7,0.5c-0.3,0-0.6-0.2-0.7-0.5L8.9,17.4C8.8,17.2,8.5,17,8.3,17L8.3,17z"/>
	<path d="M15.4,16.8c-0.2-0.2-0.4-0.3-0.7-0.3h-1.9c-0.3,0-0.5,0.1-0.7,0.3c-0.3,0.3-0.3,0.7-0.1,1l1,1.5l-0.5,4
		l0.9,2.5c0.1,0.2,0.4,0.2,0.5,0l0.9-2.5l-0.5-4l1-1.5C15.8,17.5,15.7,17.1,15.4,16.8z"/>
</g>
</svg>