<!-- Generator: Adobe Illustrator 18.1.1, SVG Export Plug-In  -->
<svg version="1.1"
	 xmlns="http://www.w3.org/2000/svg" xmlns:xlink="http://www.w3.org/1999/xlink" xmlns:a="http://ns.adobe.com/AdobeSVGViewerExtensions/3.0/"
	 x="0px" y="0px" viewBox="0 0 20.4 25.5" enable-background="new 0 0 20.4 25.5"
	 xml:space="preserve">
<defs>
</defs>
<g id="XMLID_7_">
	<path d="M11.4,21.7c0,0.8,0.6,1.4,1.4,1.4s1.4-0.6,1.4-1.4c0-0.5-0.5-1.1-0.9-1.7
		c-0.2-0.3-0.7-0.3-0.9,0C11.9,20.6,11.4,21.2,11.4,21.7z"/>
	<path d="M15.2,18.4c0,0.8,0.6,1.4,1.4,1.4s1.4-0.6,1.4-1.4c0-0.5-0.5-1.1-0.9-1.7
		c-0.2-0.3-0.7-0.3-0.9,0C15.8,17.3,15.2,17.9,15.2,18.4z"/>
	<path d="M7.5,18.4c0,0.8,0.6,1.4,1.4,1.4c0.8,0,1.4-0.6,1.4-1.4c0-0.5-0.5-1.1-0.9-1.7
		c-0.2-0.3-0.7-0.3-0.9,0C8,17.3,7.5,17.9,7.5,18.4z"/>
	<path d="M11.3,6c-2.9,0.5-5.1,2.6-5.3,5.1c0,0.1,0,0.1,0.1,0.2c0,0,0.1,0.1,0.2,0.1h13
		c0.1,0,0.1,0,0.2-0.1c0,0,0.1-0.1,0.1-0.2C19.3,8.5,17,6.4,14,6c-0.5-3.4-3.4-6-7-6C3.2,0,0,3.2,0,7v17.2c0,0.7,0.6,1.3,1.3,1.3
		c0.7,0,1.3-0.6,1.3-1.3V7c0-2.4,2-4.4,4.4-4.4C9.1,2.6,10.8,4,11.3,6z"/>
	<path d="M19.5,12.6H6.1c-0.5,0-0.9,0.4-0.9,0.9c0,0.5,0.4,0.9,0.9,0.9h13.4c0.5,0,0.9-0.4,0.9-0.9
		C20.4,13,20,12.6,19.5,12.6z"/>
</g>
</svg>
