<!-- Generator: Adobe Illustrator 18.1.1, SVG Export Plug-In  -->
<svg version="1.1"
	 xmlns="http://www.w3.org/2000/svg" xmlns:xlink="http://www.w3.org/1999/xlink" xmlns:a="http://ns.adobe.com/AdobeSVGViewerExtensions/3.0/"
	 x="0px" y="0px" viewBox="0 0 36 26.6" enable-background="new 0 0 36 26.6" xml:space="preserve">
<defs>
</defs>
<path d="M35.8,16.5l-4-7.3h0V2.5c0-1.4-1.1-2.5-2.5-2.5H6.7C5.3,0,4.2,1.1,4.2,2.5v6.7h0l-4,7.3H35.8z M9.2,6.8
	c0-0.8,0.7-1.5,1.5-1.5h14.4c1,0,1.7,0.8,1.7,1.7v0.3c0,1-0.8,1.7-1.7,1.7H10.9c-1,0-1.7-0.8-1.7-1.7V6.8z M5.9,9.2h2.4
	c0.6,0.8,1.5,1.4,2.6,1.4h14.1c1.1,0,2-0.5,2.6-1.4h2.4l3.2,5.8H2.7L5.9,9.2z M36,17.7v6.8c0,1.2-1,2.2-2.2,2.2H2.2
	c-1.2,0-2.2-1-2.2-2.2v-6.8L36,17.7L36,17.7z"/>
</svg>
