<!-- Generator: Adobe Illustrator 18.1.1, SVG Export Plug-In  -->
<svg version="1.1"
	 xmlns="http://www.w3.org/2000/svg" xmlns:xlink="http://www.w3.org/1999/xlink" xmlns:a="http://ns.adobe.com/AdobeSVGViewerExtensions/3.0/"
	 x="0px" y="0px" viewBox="0 0 10.4 19.2" enable-background="new 0 0 10.4 19.2"
	 xml:space="preserve">
<defs>
</defs>
<g>
	<g>
		<path d="M3.4,18.7v-8.3H0.5V7.4h2.9V4.7c0-2.6,1.6-4.2,4.1-4.2l2.4,0v2.7l-1.6,0C6.7,3.2,6.4,4.1,6.4,5v2.3h3.3
			l0,2.9H6.4v8.3H3.4z"/>
		<path d="M7.5,1l1.9,0v1.7l-1.1,0C5.9,2.7,5.9,4.5,5.9,5v1.8v1h1h2.3l0,1.9H6.9h-1v1v7.3h-2v-7.3v-1h-1H1V7.9h1.9h1
			v-1V4.7C3.9,2.4,5.2,1,7.5,1 M7.5,0C4.7,0,2.9,1.9,2.9,4.7v2.2H0.4C0.2,6.9,0,7.1,0,7.3v3.2c0,0.2,0.2,0.4,0.4,0.4h2.5v8
			c0,0.2,0.2,0.4,0.4,0.4h3.3c0.2,0,0.4-0.2,0.4-0.4v-8h2.9c0.2,0,0.4-0.2,0.4-0.4l0-3.2c0-0.1,0-0.2-0.1-0.3
			C10.1,6.9,10,6.9,9.9,6.9H6.9V5c0-0.9,0.2-1.3,1.4-1.3l1.7,0c0.2,0,0.4-0.2,0.4-0.4V0.4C10.4,0.2,10.2,0,10,0L7.5,0L7.5,0z"/>
	</g>
</g>
</svg>
