<!-- Generator: Adobe Illustrator 18.1.1, SVG Export Plug-In  -->
<svg version="1.1"
	 xmlns="http://www.w3.org/2000/svg" xmlns:xlink="http://www.w3.org/1999/xlink" xmlns:a="http://ns.adobe.com/AdobeSVGViewerExtensions/3.0/"
	 x="0px" y="0px" viewBox="0 0 18.6 11" enable-background="new 0 0 18.6 11" xml:space="preserve">
<defs>
</defs>
<g>
	<path d="M11.4,0.2c0.5,0.1,1,0.2,1.5,0.4c0.9,0.3,1.7,0.6,2.5,1.1c0.1,0,0.1,0.1,0.2,0.1c0.9,0,1.8,0,2.7,0
		c0.1,0,0.1,0,0.2,0c0,0,0,0,0,0c0,0.1-0.1,0.1-0.1,0.2c-0.3,0.5-0.6,1-0.7,1.5c0,0.1,0,0.1,0,0.2c0.8,1.2,1.1,2.4,0.7,3.8
		c-0.3,1.2-1,2.2-2,2.8c-0.8,0.5-1.6,0.7-2.5,0.7c-0.4,0-0.7,0-1.1-0.1c-0.9-0.2-1.7-0.7-2.3-1.3c-0.1-0.1-0.2-0.2-0.2-0.3
		c-0.3,0.5-0.7,1-1,1.5c-0.3-0.5-0.7-1-1-1.5c0,0,0,0,0,0c0,0,0,0,0,0c-0.8,0.9-1.7,1.4-2.9,1.6C4.7,11,4.1,11,3.4,10.8
		c-0.9-0.2-1.6-0.7-2.3-1.4C0.6,8.7,0.2,7.9,0.1,7c-0.2-0.8,0-1.6,0.1-1.8c0.1-0.6,0.4-1.1,0.7-1.6c0,0,0-0.1,0-0.1
		C0.8,3,0.5,2.5,0.2,2.1C0.2,2,0.1,1.9,0,1.8c0,0,0,0,0,0c0,0,0,0,0,0c0.9,0,1.9,0,2.8,0c0,0,0.1,0,0.1,0c0.7-0.4,1.4-0.8,2.1-1
		c0.5-0.2,1.1-0.3,1.6-0.4C7.2,0.1,7.8,0.1,8.3,0C9.6-0.1,10.7,0.1,11.4,0.2z M10.2,6.3c0,2,1.7,3.7,3.7,3.7c2.1,0,3.7-1.6,3.7-3.7
		c0-2.1-1.7-3.7-3.8-3.7C11.8,2.7,10.2,4.3,10.2,6.3z M4.6,2.6c-2,0-3.7,1.6-3.7,3.8c0,2,1.7,3.7,3.7,3.6c2,0,3.7-1.7,3.7-3.7
		C8.4,4.3,6.7,2.6,4.6,2.6z M4.8,1.7c1.1,0.1,2.1,0.5,3,1.2c0.8,0.8,1.3,1.7,1.5,2.8c0.2-1.1,0.7-2,1.5-2.8c0.8-0.8,1.8-1.1,2.9-1.2
		C12.4,1.1,11,0.9,9.5,0.8C7.9,0.8,6.3,1,4.8,1.7z"/>
	<path d="M13.9,4c1.3,0,2.3,1,2.3,2.3c0,1.3-1,2.3-2.2,2.3c-1.3,0.1-2.4-1-2.4-2.3C11.6,5,12.7,4,13.9,4z M15.4,6.3
		c0-0.8-0.7-1.5-1.5-1.5c-0.8,0-1.5,0.7-1.5,1.5c0,0.8,0.7,1.5,1.5,1.5C14.7,7.8,15.4,7.1,15.4,6.3z"/>
	<path d="M4.6,4c1.3,0,2.3,1,2.3,2.3c0,1.3-1,2.2-2.2,2.3c-1.3,0.1-2.4-1-2.4-2.3C2.3,5,3.4,4,4.6,4z M6.1,6.3
		c0-0.8-0.7-1.5-1.5-1.5c-0.8,0-1.5,0.7-1.5,1.5c0,0.8,0.7,1.5,1.5,1.5C5.4,7.8,6.1,7.1,6.1,6.3z"/>
	<path d="M13.9,5.5c0.4,0,0.8,0.3,0.8,0.8c0,0.4-0.3,0.8-0.8,0.8c-0.4,0-0.8-0.3-0.8-0.8C13.1,5.9,13.5,5.5,13.9,5.5
		z"/>
	<path d="M4.6,5.5c0.4,0,0.8,0.3,0.8,0.8c0,0.4-0.3,0.8-0.8,0.8c-0.4,0-0.8-0.3-0.8-0.8C3.8,5.9,4.2,5.5,4.6,5.5z"/>
</g>
</svg>
