<!-- Generator: Adobe Illustrator 18.1.1, SVG Export Plug-In  -->
<svg version="1.1"
	 xmlns="http://www.w3.org/2000/svg" xmlns:xlink="http://www.w3.org/1999/xlink" xmlns:a="http://ns.adobe.com/AdobeSVGViewerExtensions/3.0/"
	 x="0px" y="0px" viewBox="0 0 14 14" enable-background="new 0 0 14 14" xml:space="preserve">
<defs>
</defs>
<g>
	<g>
		<path d="M12.7,0H1.3C0.6,0,0,0.6,0,1.3v11.4C0,13.4,0.6,14,1.3,14h11.4c0.7,0,1.3-0.6,1.3-1.3V1.3
			C14,0.6,13.4,0,12.7,0z M9.6,2.1c0-0.5,0.4-0.9,0.9-0.9h1.1c0.5,0,0.9,0.4,0.9,0.9v1.3c0,0.5-0.4,0.9-0.9,0.9h-1.1
			c-0.5,0-0.9-0.4-0.9-0.9V2.1z M7,3.9c1.7,0,3.1,1.4,3.1,3.1S8.7,10.1,7,10.1S3.9,8.7,3.9,7S5.3,3.9,7,3.9z M12.7,13.1H1.3
			c-0.2,0-0.4-0.2-0.4-0.4V5.9h0.4h1.5h0.4C3.1,6.3,3,6.6,3,7c0,2.2,1.8,4,4,4s4-1.8,4-4c0-0.4-0.1-0.7-0.2-1.1h0.4h1.5h0.4v6.8
			C13.1,12.9,12.9,13.1,12.7,13.1z"/>
	</g>
</g>
</svg>
