<!-- Generator: Adobe Illustrator 18.1.1, SVG Export Plug-In  -->
<svg version="1.1"
	 xmlns="http://www.w3.org/2000/svg" xmlns:xlink="http://www.w3.org/1999/xlink" xmlns:a="http://ns.adobe.com/AdobeSVGViewerExtensions/3.0/"
	 x="0px" y="0px" viewBox="0 0 18.3 16.6" enable-background="new 0 0 18.3 16.6"
	 xml:space="preserve">
<defs>
</defs>
<g>
	<g>
		<path stroke-miterlimit="10" d="M10.1,0.7v0.7L7.9,1.5C8.5,2.2,8.8,3,8.8,3.9c0,1-0.3,1.9-1,2.5
			s-1.6,1-2.7,1c-0.5,0-0.8,0-1-0.1C3.6,7.5,3.3,7.7,3.1,8S2.8,8.6,2.8,8.9c0,0.3,0.1,0.6,0.4,0.7s0.7,0.2,1.3,0.2h1.9
			c1.2,0,2,0.2,2.6,0.7s0.9,1.2,0.9,2.1c0,1.1-0.5,2-1.4,2.6s-2.2,0.9-3.9,0.9c-1.3,0-2.4-0.3-3.1-0.8s-1.1-1.2-1.1-2.1
			c0-0.7,0.2-1.3,0.7-1.8s1.1-0.8,1.8-1c-0.3-0.1-0.6-0.3-0.8-0.6S2,9.3,2,9c0-0.7,0.5-1.3,1.4-1.9C2.7,6.8,2.2,6.4,1.9,5.9
			S1.4,4.7,1.4,4c0-1.1,0.3-1.9,1-2.6s1.6-1,2.7-1c0.7,0,1.2,0.1,1.6,0.2H10.1z M1.5,13.1c0,1.5,1.1,2.2,3.3,2.2
			c2.8,0,4.2-0.9,4.2-2.7c0-0.6-0.2-1.1-0.7-1.4s-1.1-0.4-2.1-0.4H4.4C2.5,10.8,1.5,11.6,1.5,13.1z M2.3,4c0,0.8,0.2,1.5,0.7,1.9
			s1.2,0.7,2,0.7c0.9,0,1.6-0.2,2-0.7s0.7-1.1,0.7-2c0-0.9-0.2-1.6-0.7-2s-1.2-0.7-2-0.7c-0.8,0-1.5,0.2-2,0.7S2.3,3.1,2.3,4z"/>
	</g>
	<g>
		<path stroke-miterlimit="10" d="M14.6,5.7h3.2v0.6h-3.2v3.2H14V6.3h-3.2V5.7H14V2.5h0.6V5.7z"/>
	</g>
</g>
</svg>
