<!-- Generator: Adobe Illustrator 18.1.1, SVG Export Plug-In  -->
<svg version="1.1"
	 xmlns="http://www.w3.org/2000/svg" xmlns:xlink="http://www.w3.org/1999/xlink" xmlns:a="http://ns.adobe.com/AdobeSVGViewerExtensions/3.0/"
	 x="0px" y="0px" viewBox="0 0 16.6 9.5" enable-background="new 0 0 16.6 9.5" xml:space="preserve"
	>
<defs>
</defs>
<g>
	<path d="M14.7,4c0.2-0.3,0.4-0.6,0.6-0.7c1-1.3,1.4-2.2,1.3-2.5l-0.1-0.1c0-0.1-0.1-0.1-0.3-0.1
		c-0.1,0-0.3-0.1-0.6,0l-2.5,0c-0.1,0-0.1,0-0.2,0c-0.1,0-0.1,0-0.1,0c0,0,0,0,0,0l0,0c0,0-0.1,0-0.1,0.1c0,0-0.1,0.1-0.1,0.2
		c-0.3,0.7-0.6,1.3-0.9,1.9c-0.2,0.4-0.4,0.7-0.6,0.9c-0.2,0.3-0.3,0.5-0.4,0.6c-0.1,0.1-0.2,0.2-0.3,0.3c-0.1,0.1-0.2,0.1-0.2,0.1
		c-0.1,0-0.1,0-0.1,0C9.9,4.5,9.9,4.5,9.8,4.4c0-0.1-0.1-0.2-0.1-0.3c0-0.1,0-0.3,0-0.4c0-0.1,0-0.2,0-0.4c0-0.2,0-0.3,0-0.4
		c0-0.2,0-0.5,0-0.7c0-0.3,0-0.5,0-0.6c0-0.1,0-0.3,0-0.5c0-0.2,0-0.3,0-0.4c0-0.1-0.1-0.2-0.1-0.3c0-0.1-0.1-0.2-0.2-0.2
		c-0.1,0-0.2-0.1-0.3-0.1C8.9,0,8.5,0,8,0C6.9,0,6.2,0.1,5.9,0.2C5.8,0.3,5.7,0.4,5.6,0.5c-0.1,0.1-0.1,0.2,0,0.2
		C5.9,0.7,6.1,0.9,6.3,1l0.1,0.1c0,0.1,0.1,0.2,0.1,0.4c0,0.2,0.1,0.4,0.1,0.6c0,0.4,0,0.8,0,1.1c0,0.3-0.1,0.5-0.1,0.7
		c0,0.2-0.1,0.3-0.1,0.4C6.3,4.5,6.3,4.5,6.2,4.6c0,0,0,0,0,0c-0.1,0-0.2,0-0.2,0c-0.1,0-0.2,0-0.3-0.1C5.5,4.4,5.4,4.3,5.3,4.2
		C5.2,4.1,5,3.9,4.9,3.6C4.7,3.3,4.6,3,4.4,2.7L4.3,2.4C4.2,2.3,4.1,2.1,3.9,1.7C3.8,1.4,3.6,1.1,3.5,0.8c0-0.1-0.1-0.2-0.2-0.3l0,0
		c0,0-0.1,0-0.1-0.1c-0.1,0-0.1,0-0.2-0.1l-2.4,0c-0.2,0-0.4,0.1-0.5,0.2l0,0.1c0,0,0,0.1,0,0.1C0,0.9,0,0.9,0.1,1
		c0.3,0.8,0.7,1.6,1.1,2.4c0.4,0.8,0.8,1.4,1.1,1.8c0.3,0.5,0.6,0.9,0.9,1.3s0.5,0.7,0.6,0.8C3.9,7.4,4,7.5,4,7.6l0.2,0.2
		c0.1,0.1,0.3,0.3,0.6,0.5c0.3,0.2,0.6,0.4,0.9,0.6C6.1,9,6.4,9.2,6.9,9.3c0.4,0.1,0.9,0.2,1.3,0.1h1c0.2,0,0.4-0.1,0.5-0.2l0,0
		c0,0,0-0.1,0.1-0.2c0-0.1,0-0.2,0-0.2c0-0.2,0-0.5,0.1-0.7c0-0.2,0.1-0.3,0.1-0.4C10,7.6,10,7.5,10.1,7.4c0.1-0.1,0.1-0.1,0.1-0.1
		c0,0,0.1,0,0.1,0c0.1,0,0.3,0,0.5,0.1c0.2,0.1,0.4,0.3,0.5,0.5c0.2,0.2,0.4,0.4,0.6,0.7c0.2,0.2,0.4,0.4,0.6,0.6l0.2,0.1
		c0.1,0.1,0.3,0.1,0.4,0.2c0.2,0.1,0.3,0.1,0.5,0l2.2,0c0.2,0,0.4,0,0.5-0.1c0.1-0.1,0.2-0.2,0.2-0.2c0-0.1,0-0.2,0-0.3
		c0-0.1,0-0.2-0.1-0.2c0,0,0-0.1-0.1-0.1c-0.3-0.5-0.8-1.2-1.7-1.9l0,0l0,0l0,0h0c-0.4-0.4-0.6-0.6-0.7-0.7
		c-0.2-0.2-0.2-0.5-0.1-0.7C14,4.9,14.3,4.5,14.7,4z"/>
</g>
</svg>
