<?xml version="1.0" encoding="utf-8"?>
<!-- Generator: Adobe Illustrator 18.0.0, SVG Export Plug-In . SVG Version: 6.00 Build 0)  -->
<!DOCTYPE svg PUBLIC "-//W3C//DTD SVG 1.1//EN" "http://www.w3.org/Graphics/SVG/1.1/DTD/svg11.dtd">
<svg version="1.1" id="Layer_1" xmlns:x="&ns_extend;" xmlns:i="&ns_ai;" xmlns:graph="&ns_graphs;"
	 xmlns="http://www.w3.org/2000/svg" xmlns:xlink="http://www.w3.org/1999/xlink" xmlns:a="http://ns.adobe.com/AdobeSVGViewerExtensions/3.0/"
	 x="0px" y="0px" width="99.2px" height="100px" viewBox="0 0 99.2 100" enable-background="new 0 0 99.2 100" xml:space="preserve"
	>
<metadata>
	<sfw  xmlns="&ns_sfw;">
		<slices></slices>
		<sliceSourceBounds  height="100" width="99.2" y="-50" x="-72" bottomLeftOrigin="true"></sliceSourceBounds>
	</sfw>
</metadata>
<g>
	<g>
		<path d="M80.9,63.6c-5.8,0-10.9,2.8-14.2,7L35.7,54.7c0.4-1.5,0.7-3.1,0.7-4.7c0-1.8-0.3-3.5-0.8-5.1l30.8-15.8
			c3.3,4.4,8.6,7.3,14.5,7.3c10.1,0,18.2-8.2,18.2-18.2C99.2,8.2,91,0,80.9,0C70.9,0,62.7,8.2,62.7,18.2c0,1.6,0.3,3.2,0.7,4.7
			L32.5,38.8c-3.3-4.2-8.5-7-14.3-7C8.1,31.8,0,39.9,0,50s8.1,18.2,18.2,18.2c6,0,11.2-2.9,14.5-7.3l30.8,15.8
			c-0.5,1.6-0.8,3.3-0.8,5.1c0,10.1,8.2,18.2,18.2,18.2c10.1,0,18.2-8.2,18.2-18.2C99.1,71.7,91,63.6,80.9,63.6z"/>
	</g>
</g>
</svg>
