<!-- Generator: Adobe Illustrator 18.1.1, SVG Export Plug-In  -->
<svg version="1.1"
	 xmlns="http://www.w3.org/2000/svg" xmlns:xlink="http://www.w3.org/1999/xlink" xmlns:a="http://ns.adobe.com/AdobeSVGViewerExtensions/3.0/"
	 x="0px" y="0px" viewBox="0 0 12.3 17.1" enable-background="new 0 0 12.3 17.1"
	 xml:space="preserve">
<defs>
</defs>
<g>
	<g id="Layer_8_2_">
		<g>
			<path d="M0.9,16.6c-0.1,0-0.1,0-0.2-0.1c-0.1-0.1-0.2-0.2-0.2-0.3V0.9c0-0.1,0.1-0.3,0.2-0.3
				c0.1,0,0.1-0.1,0.2-0.1s0.1,0,0.2,0.1l10.5,7.6c0.2,0.1,0.2,0.2,0.2,0.4c0,0.1-0.1,0.3-0.2,0.3L1,16.5C1,16.5,1,16.6,0.9,16.6z"
				/>
			<path d="M1,1.1l10.2,7.4L1,15.9V1.1 M0.9,0C0.7,0,0.6,0,0.4,0.1C0.2,0.3,0,0.6,0,0.9v15.3c0,0.3,0.2,0.6,0.4,0.8
				c0.1,0.1,0.3,0.1,0.4,0.1c0.2,0,0.3,0,0.4-0.1l10.5-7.6c0.3-0.2,0.4-0.4,0.4-0.8s-0.2-0.6-0.4-0.8L1.3,0.1C1.2,0,1,0,0.9,0L0.9,0
				z"/>
		</g>
	</g>
</g>
</svg>
